<?xml version="1.0" encoding="UTF-8"?>
<svg id="Layer_1" xmlns="http://www.w3.org/2000/svg" viewBox="0 0 1537.11 379.89">
  <defs>
    <style>
      .cls-1 {
        fill: #fff;
      }

      .cls-2 {
        fill: #38ff9c;
      }
    </style>
  </defs>
  <g>
    <g>
      <path class="cls-1" d="M456.01,286.52V98.91h126.41v32.7h-86.75v44.7h80.24v32.7h-80.24v44.79h87.11v32.7h-126.78Z"/>
      <path class="cls-1" d="M672.02,255.74c-.98.18-2.38.44-4.21.78-1.83.34-3.66.5-5.5.5-2.63,0-4.93-.4-6.92-1.19-1.99-.79-3.53-2.18-4.63-4.17-1.1-1.98-1.65-4.78-1.65-8.38v-68.15h26.47v-29.31h-26.47v-33.71h-39.02v33.71h-19.24v29.31h19.24v73.28c-.06,9.22,1.86,16.85,5.77,22.9,3.91,6.05,9.39,10.5,16.44,13.37,7.05,2.87,15.28,4.12,24.69,3.76,5.07-.18,9.37-.69,12.92-1.51,3.54-.82,6.29-1.54,8.24-2.15l-6.14-29.04Z"/>
      <path class="cls-1" d="M735.34,205.17v81.34h-39.02V98.91h37.92v71.72h1.65c3.17-8.3,8.3-14.82,15.39-19.56,7.08-4.73,15.97-7.1,26.66-7.1,9.77,0,18.3,2.12,25.6,6.37,7.3,4.25,12.98,10.32,17.04,18.23,4.06,7.91,6.06,17.36,6,28.35v89.59h-39.02v-82.63c.06-8.67-2.12-15.42-6.55-20.24-4.43-4.82-10.61-7.24-18.55-7.24-5.31,0-10,1.13-14.06,3.39-4.06,2.26-7.24,5.54-9.53,9.85-2.29,4.31-3.47,9.48-3.53,15.53Z"/>
      <path class="cls-1" d="M983.22,226.15v-10.72c0-11.97-1.68-22.43-5.04-31.37-3.36-8.95-8.05-16.38-14.06-22.31-6.02-5.92-13.04-10.37-21.07-13.33-8.03-2.96-16.69-4.44-25.97-4.44-13.8,0-25.82,3.05-36.05,9.16-10.23,6.11-18.15,14.63-23.77,25.56-5.62,10.93-8.43,23.63-8.43,38.11s2.81,27.68,8.43,38.52c5.62,10.84,13.63,19.21,24.05,25.1,10.41,5.89,22.86,8.84,37.33,8.84,11.6,0,21.85-1.79,30.73-5.36,8.89-3.57,16.15-8.58,21.8-15.02,5.65-6.44,9.39-14,11.22-22.67l-36.09-2.38c-1.34,3.54-3.3,6.54-5.86,8.98-2.56,2.44-5.65,4.28-9.25,5.5-3.6,1.22-7.57,1.83-11.91,1.83-6.54,0-12.18-1.37-16.95-4.12-4.76-2.75-8.44-6.66-11.04-11.72-2.6-5.07-3.89-11.08-3.89-18.05v-.09h95.82ZM902.01,177.19c4.55-2.72,9.79-4.08,15.71-4.08s10.67,1.24,14.98,3.71c4.31,2.47,7.68,5.88,10.12,10.21,2.44,4.34,3.66,9.31,3.66,14.93h-59.03c.24-5.05,1.52-9.68,3.89-13.88,2.57-4.55,6.12-8.18,10.67-10.9Z"/>
      <path class="cls-1" d="M1006.39,286.52v-140.7h37.83v24.55h1.47c2.56-8.73,6.87-15.34,12.92-19.83,6.04-4.49,13.01-6.73,20.88-6.73,1.95,0,4.06.12,6.32.37,2.26.25,4.24.58,5.96,1.01v34.63c-1.83-.55-4.37-1.04-7.6-1.47-3.24-.43-6.2-.64-8.88-.64-5.74,0-10.86,1.24-15.34,3.71-4.49,2.47-8.03,5.91-10.63,10.31-2.6,4.4-3.89,9.47-3.89,15.21v79.6h-39.02Z"/>
      <path class="cls-1" d="M1148.65,98.91v187.6h-39.02V98.91h39.02Z"/>
      <path class="cls-1" d="M1177.67,286.52v-140.7h39.02v140.7h-39.02Z"/>
      <path class="cls-1" d="M1284.67,205.17v81.34h-39.02v-140.7h37.19v24.82h1.65c3.11-8.18,8.34-14.67,15.66-19.47,7.33-4.79,16.21-7.19,26.66-7.19,9.77,0,18.29,2.14,25.56,6.41,7.27,4.28,12.92,10.37,16.95,18.27,4.03,7.91,6.04,17.33,6.04,28.26v89.59h-39.02v-82.63c.06-8.61-2.14-15.34-6.6-20.2-4.46-4.85-10.6-7.28-18.41-7.28-5.25,0-9.88,1.13-13.88,3.39-4,2.26-7.12,5.54-9.34,9.85-2.23,4.31-3.38,9.48-3.44,15.53Z"/>
      <polygon class="cls-1" points="1491.4 286.52 1537.11 286.52 1482.27 206.76 1534.45 145.81 1489.66 145.81 1444.59 199.22 1442.48 199.22 1442.48 98.91 1403.46 98.91 1403.46 286.52 1442.48 286.52 1442.48 241.84 1453.06 229.77 1491.4 286.52"/>
    </g>
    <circle class="cls-1" cx="1197.19" cy="108.37" r="19.81"/>
  </g>
  <path class="cls-2" d="M224.63,173.22c-4.73,0-9.47-1.81-13.08-5.42-7.23-7.22-7.23-18.94,0-26.16l47.84-47.84c7.22-7.22,18.94-7.22,26.16,0,7.23,7.22,7.23,18.94,0,26.16l-47.84,47.84c-3.61,3.61-8.35,5.42-13.08,5.42Z"/>
  <path class="cls-2" d="M189.95,379.89C85.21,379.89,0,294.68,0,189.95S85.21,0,189.95,0s189.95,85.21,189.95,189.95-85.21,189.95-189.95,189.95ZM189.95,37c-84.33,0-152.95,68.61-152.95,152.95s68.61,152.95,152.95,152.95,152.95-68.61,152.95-152.95S274.28,37,189.95,37Z"/>
  <path class="cls-2" d="M107.42,290.06c-4.73,0-9.47-1.81-13.08-5.42-7.22-7.22-7.23-18.94,0-26.16l47.84-47.84c7.22-7.22,18.94-7.23,26.16,0s7.23,18.94,0,26.16l-47.84,47.84c-3.61,3.61-8.35,5.42-13.08,5.42Z"/>
  <path class="cls-2" d="M185.81,123.35c-33.07,2.37-59.81,28.97-62.05,62.06-.12,1.79-.9,3.48-2.18,4.75l-26.87,26.91c-1.52,1.53-4.15.84-4.7-1.25-2.18-8.33-3.53-17.27-3.53-26.16,0-57.2,46.53-103.73,103.73-103.73,9.32,0,18.36,1.24,26.96,3.55,1.74.47,2.31,2.65,1.04,3.93l-27.77,27.79c-1.24,1.24-2.88,2.01-4.63,2.14Z"/>
  <path class="cls-2" d="M258.05,188.99l27.79-27.77c1.27-1.27,3.46-.7,3.93,1.04,2.32,8.6,3.55,17.64,3.55,26.96,0,57.2-46.53,103.73-103.73,103.73-8.88,0-17.82-1.35-26.16-3.53-2.09-.55-2.77-3.17-1.25-4.7l26.91-26.87c1.27-1.27,2.96-2.05,4.75-2.18,33.1-2.24,59.69-28.98,62.06-62.05.13-1.75.9-3.39,2.14-4.63Z"/>
</svg>